<svg width="50" height="50" xmlns="http://www.w3.org/2000/svg" xmlns:xlink="http://www.w3.org/1999/xlink" xml:space="preserve" overflow="hidden"><defs><clipPath id="clip0"><rect x="758" y="286" width="50" height="50"/></clipPath><clipPath id="clip1"><rect x="759" y="287" width="48" height="48"/></clipPath><clipPath id="clip2"><rect x="759" y="287" width="48" height="48"/></clipPath><clipPath id="clip3"><rect x="759" y="287" width="48" height="48"/></clipPath></defs><g clip-path="url(#clip0)" transform="translate(-758 -286)"><g clip-path="url(#clip1)"><g clip-path="url(#clip2)"><g clip-path="url(#clip3)"><path d="M783 287C769.766 287 759 297.766 759 311 759 324.234 769.766 335 783 335 796.234 335 807 324.234 807 311 807 297.766 796.234 287 783 287ZM783 333.192C770.763 333.192 760.808 323.24 760.808 311 760.808 298.76 770.763 288.808 783 288.808 795.237 288.808 805.192 298.763 805.192 311 805.192 323.237 795.24 333.192 783 333.192Z" fill="#00C895" fill-rule="nonzero" fill-opacity="1"/><path d="M785.627 301.705 785.627 303.826 776.606 306.038 776.606 303.508 769.758 303.508C768.259 303.509 767.044 304.724 767.044 306.223L767.044 313.086 773.891 313.086C774.244 313.087 774.594 313.018 774.92 312.884L780.416 318.388C780.282 318.714 780.214 319.063 780.214 319.415L780.214 326.278 787.062 326.278C788.561 326.278 789.776 325.063 789.776 323.564L789.776 316.7 787.51 316.7 789.974 308.568 792.475 308.568C793.974 308.568 795.189 307.353 795.189 305.854L795.189 298.991 788.34 298.991C786.841 298.991 785.626 300.207 785.627 301.705ZM768.911 311.219 768.911 306.223C768.911 305.755 769.29 305.376 769.758 305.376L774.738 305.376 774.738 310.372C774.737 310.84 774.358 311.219 773.891 311.219ZM787.909 323.564C787.909 324.032 787.53 324.411 787.062 324.411L782.082 324.411 782.082 319.415C782.083 318.947 782.462 318.568 782.929 318.568L787.909 318.568ZM785.34 316.7 782.929 316.7C782.568 316.7 782.211 316.771 781.879 316.911L776.396 311.42C776.535 311.088 776.606 310.732 776.606 310.373L776.606 308.148 776.632 308.174 785.627 305.966 785.627 308.569 787.937 308.569ZM793.32 305.854C793.319 306.322 792.94 306.701 792.473 306.702L787.493 306.702 787.493 301.705C787.494 301.238 787.873 300.86 788.34 300.86L793.32 300.86Z" fill="#00C895" fill-rule="nonzero" fill-opacity="1"/></g></g></g></g></svg>